Coordinates
version=1
nRows=14
nColumns=36
inDegrees=yes

Units are S.I. units (second, meters, Newtons, ...)
If the header above contains a line with 'inDegrees', this indicates whether rotational values are in degrees (yes) or radians (no).

endheader
time	pelvis_tilt	pelvis_list	pelvis_rotation	pelvis_tx	pelvis_ty	pelvis_tz	hip_flexion_r	hip_adduction_r	hip_rotation_r	knee_angle_r	knee_angle_r_beta	ankle_angle_r	subtalar_angle_r	mtp_angle_r	hip_flexion_l	hip_adduction_l	hip_rotation_l	knee_angle_l	knee_angle_l_beta	ankle_angle_l	subtalar_angle_l	mtp_angle_l	lumbar_extension	lumbar_bending	lumbar_rotation	arm_flex_r	arm_add_r	arm_rot_r	elbow_flex_r	pro_sup_r	arm_flex_l	arm_add_l	arm_rot_l	elbow_flex_l	pro_sup_l
      3.80000000	    -18.38868255	     -4.95797701	      9.03888516	      0.54784162	      0.84738439	     -0.10627161	     56.63192827	     -8.11574858	      1.29730096	     49.24432583	      0.85947562	     15.47511045	    -12.34201919	     -7.49999987	     54.29835132	    -12.47438740	     -7.02593235	     50.59652656	      0.88307598	      8.24491682	    -23.66216393	     -7.49999987	    -19.15854123	     -4.14722726	      5.27215003	     19.16223000	    -15.69220337	      2.88182317	    128.10416024	     97.66192755	     18.11305523	    -12.40961148	     11.79440148	    133.35952554	     95.32988612
      3.81666670	    -18.26869405	     -5.04028113	      9.55215820	      0.54665578	      0.85602166	     -0.10610270	     55.03810636	     -8.37638550	      1.05156009	     47.24181286	      0.82452518	     15.21354478	    -12.19541528	     -7.49999987	     52.74424931	    -11.95859719	     -7.39835340	     48.12462639	      0.83993318	      7.69255699	    -23.13282191	     -7.49999987	    -17.94102896	     -3.96694241	      5.25630061	     16.00546241	    -16.02445689	      3.28678597	    128.09711334	     97.66391811	     14.89640367	    -12.64383160	     11.82984499	    133.36357842	     95.30675007
      3.83333330	    -18.11962433	     -4.94738988	     10.27283271	      0.55090582	      0.87024383	     -0.10492374	     53.34811500	     -8.79151411	      0.78998212	     45.19758548	      0.78884668	     13.95742035	    -12.51382335	     -7.49999987	     51.20781248	    -11.21370075	     -7.56613966	     45.92207687	      0.80149144	      5.47280777	    -24.10456497	     -7.49999987	    -17.21647380	     -4.01712269	      4.85674008	     12.49330582	    -15.29675990	      3.22260168	    128.48046107	     95.97479790	     11.65848108	    -12.53918430	      9.56183673	    133.66145917	     93.55156577
      3.85000000	    -17.61136303	     -4.96162569	     10.91551525	      0.55408439	      0.87824363	     -0.10896802	     51.21653399	     -9.01281782	      0.45060243	     42.93525849	      0.74936163	     13.16186101	    -12.68779574	     -7.49999987	     49.26364716	    -10.59348862	     -7.59840735	     43.60303344	      0.76101650	      4.73592075	    -23.46870519	     -7.49999987	    -16.45217255	     -3.65208164	      3.51987780	     11.22437883	    -14.82533322	      5.00681437	    126.79726642	     95.75421947	      7.76141313	    -12.65084088	      7.25238015	    134.09677092	     92.52322924
      3.86666670	    -17.07810250	     -5.02476799	     11.64296566	      0.55399151	      0.88117744	     -0.10960420	     49.31050875	     -9.32644358	     -0.36077255	     41.08496457	      0.71706790	     12.30224850	    -12.52174346	     -7.49999987	     47.68977272	    -10.11062617	     -7.59517067	     41.81912677	      0.72988145	      4.32177562	    -22.85371464	     -7.49999987	    -15.71787626	     -3.42637262	      3.84281415	      9.51456692	    -15.15552736	      4.34171845	    127.22035460	     95.57720826	      5.46734350	    -12.61147336	      6.36414335	    133.92076430	     92.45695610
      3.88333330	    -16.97395009	     -5.12891762	     12.08304594	      0.55354603	      0.88122823	     -0.10966515	     48.30750786	     -9.41427088	     -0.44829330	     39.51643747	      0.68969194	     11.81086387	    -12.64099234	     -7.49999987	     46.94363304	     -9.83174834	     -7.64275628	     40.55888493	      0.70788608	      4.19775417	    -22.19533780	     -7.49999987	    -14.73125885	     -3.30744614	      4.35977804	      7.99720970	    -15.74377880	      4.02275348	    127.95442247	     94.33782031	      3.65610863	    -12.78968630	      5.36323487	    134.37530599	     91.55755829
      3.90000000	    -17.29475030	     -5.36259198	     12.36041691	      0.55330807	      0.88478046	     -0.10963561	     47.34379469	     -9.29313801	     -0.57818024	     37.17269816	      0.64878597	     11.11598542	    -12.50671408	     -7.49999987	     46.58104417	     -9.58019505	     -7.66129961	     38.81310141	      0.67741641	      3.64125700	    -21.97403933	     -7.49999987	    -13.19612677	     -3.17952214	      4.65052479	      6.69486284	    -16.50431544	      4.01821243	    128.04054596	     92.73783729	      3.14816452	    -13.55016868	      4.49145811	    134.79200664	     90.19715252
      3.91666670	    -17.66975557	     -5.64206003	     12.72899465	      0.55212547	      0.89040057	     -0.11022103	     46.35374411	     -9.14641296	     -0.68526952	     34.59508475	      0.60379813	      9.90220692	    -12.87445154	     -7.49999987	     46.09968884	     -9.09504472	     -7.22399025	     36.46290356	      0.63639772	      2.41858423	    -22.26920316	     -7.49999987	    -11.83002599	     -2.80676891	      5.05102545	      5.12934823	    -16.61314164	      3.20943869	    128.10474469	     92.60698402	      1.26007824	    -12.99072800	      2.18023750	    134.42249835	     90.14661571
      3.93333330	    -17.52174287	     -5.64532033	     13.01157441	      0.55972882	      0.90521368	     -0.11166451	     44.17944234	     -8.94982610	     -0.80726150	     31.40219699	      0.54807173	      8.34507221	    -13.11362742	     -7.49999987	     44.18708104	     -8.70058824	     -7.26962958	     33.24943933	      0.58031219	      0.62420892	    -22.75564254	     -7.49999987	    -10.91137030	     -2.72461014	      4.52703751	      4.63605053	    -16.89204239	      4.04270868	    126.88749721	     91.52923231	     -1.33375045	    -12.86936486	     -1.02208088	    134.59109303	     89.74038208
      3.95000000	    -17.12618512	     -5.67687457	     13.15679174	      0.55885541	      0.90784114	     -0.11211976	     42.18944813	     -8.77062947	     -1.26862834	     28.75728136	      0.50190924	      7.12535639	    -12.80189560	     -7.49999987	     42.46711035	     -8.56781687	     -7.63009575	     30.80314334	      0.53761627	     -0.40023979	    -22.54344452	     -7.49999987	    -10.47143143	     -2.52865917	      4.92245578	      3.03473562	    -17.34346509	      3.27876706	    126.93777409	     91.37432162	     -2.54623133	    -12.84178479	     -3.06524559	    134.59944642	     89.62155161
      3.96666670	    -16.57089154	     -5.72322620	     13.30970787	      0.56294581	      0.91166712	     -0.10995294	     40.33100715	     -8.45305314	     -1.60217363	     26.78942212	      0.46756362	      5.96151172	    -13.00641190	     -7.49999987	     40.56270959	     -8.56084356	     -7.93591725	     28.65561972	      0.50013491	     -1.51824129	    -22.56240258	     -7.49999987	    -10.12689746	     -2.42717900	      5.12933460	      1.17619199	    -17.31874676	      2.65608363	    127.09287663	     91.53614832	     -3.69718446	    -12.76721608	     -4.83134713	    134.75829038	     89.84781161
      3.98333330	    -16.31553329	     -5.82643902	     13.51648145	      0.56188708	      0.91899877	     -0.11069233	     38.93009499	     -8.24845475	     -1.91738046	     24.91280278	      0.43481043	      4.81139464	    -12.96954516	     -7.49999987	     39.26162831	     -8.50310024	     -8.39571138	     26.83404858	      0.46834250	     -2.17575394	    -21.96838627	     -7.49999987	     -9.91168371	     -2.29827858	      5.27040765	     -0.25838245	    -17.20278077	      2.18419005	    127.29440404	     91.26880845	     -4.61095441	    -12.66459847	     -6.29095576	    135.16899972	     89.65611397
      4.00000000	    -16.09294949	     -5.78273229	     13.71596751	      0.56179332	      0.92112286	     -0.11123318	     37.75924165	     -8.24493718	     -2.26317630	     23.22174116	      0.40529584	      3.79765834	    -12.65443664	     -7.49999987	     37.64168125	     -8.18910436	     -8.92779308	     24.19190121	      0.42222833	     -2.73495447	    -20.90169556	     -7.49999987	     -9.52920859	     -2.28025732	      5.47896086	     -1.76507207	    -16.95517820	      1.92317946	    127.15019482	     90.45656168	     -5.82234036	    -12.04179173	     -7.25865760	    134.92631655	     88.95543756
      4.01666670	    -15.75499718	     -5.69082446	     14.07106563	      0.56544781	      0.92905678	     -0.10930542	     36.09724872	     -8.19546887	     -3.04620744	     21.16304252	      0.36936477	      2.90015122	    -12.35791479	     -7.49999987	     35.58722063	     -7.84325209	     -9.60216205	     20.83769276	      0.36368635	     -3.39983554	    -19.63145269	     -7.49999987	     -9.16870841	     -2.41718505	      5.58489061	     -3.23417362	    -16.31921541	      2.04714227	    126.72615239	     90.38285112	     -6.68214332	    -11.78074238	     -8.30414984	    134.27834392	     88.85186745
